<svg width="16" height="16" viewBox="0 0 16 16" fill="none" xmlns="http://www.w3.org/2000/svg">
<path d="M13.9333 1.33334H2.06667C1.87218 1.33334 1.68565 1.4106 1.54812 1.54812C1.4106 1.68565 1.33334 1.87218 1.33334 2.06667V13.9333C1.33334 14.0296 1.3523 14.125 1.38916 14.214C1.42601 14.3029 1.48003 14.3838 1.54812 14.4519C1.61622 14.52 1.69706 14.574 1.78603 14.6108C1.87501 14.6477 1.97037 14.6667 2.06667 14.6667H8.45334V9.5H6.72V7.5H8.45334V6C8.41743 5.64784 8.45901 5.29209 8.57515 4.95769C8.69129 4.6233 8.87918 4.31837 9.12565 4.06428C9.37211 3.81019 9.67118 3.6131 10.0019 3.48683C10.3326 3.36056 10.6869 3.30817 11.04 3.33334C11.5589 3.33014 12.0775 3.35685 12.5933 3.41334V5.21334H11.5333C10.6933 5.21334 10.5333 5.61334 10.5333 6.19334V7.48H12.5333L12.2733 9.48H10.5333V14.6667H13.9333C14.0296 14.6667 14.125 14.6477 14.214 14.6108C14.3029 14.574 14.3838 14.52 14.4519 14.4519C14.52 14.3838 14.574 14.3029 14.6108 14.214C14.6477 14.125 14.6667 14.0296 14.6667 13.9333V2.06667C14.6667 1.97037 14.6477 1.87501 14.6108 1.78603C14.574 1.69706 14.52 1.61622 14.4519 1.54812C14.3838 1.48003 14.3029 1.42601 14.214 1.38916C14.125 1.3523 14.0296 1.33334 13.9333 1.33334Z" fill="#E1E1E6"/>
</svg>
