<svg width="180" height="152" viewBox="0 0 180 152" fill="none" xmlns="http://www.w3.org/2000/svg">
<g clip-path="url(#clip0_3_48)">
<path fill-rule="evenodd" clip-rule="evenodd" d="M35.1341 61.0991H22.0584V65.0212H26.4845V77.9959H30.9099V65.0212H35.1341V61.0991V61.0991Z" fill="#7C7C8A"/>
<path fill-rule="evenodd" clip-rule="evenodd" d="M47.5052 65.0212H43.382V71.961C43.382 74.275 42.0739 74.8779 41.1689 74.8779C39.8616 74.8779 39.1571 74.275 39.1571 72.5653V65.0212H35.1341V72.765C35.1341 76.1852 36.14 78.2973 39.7606 78.2973C41.1682 78.2973 42.7777 77.4933 43.4822 76.1852H43.5825V77.9952H47.5052V65.0212V65.0212ZM55.3501 67.8378C57.1608 67.8378 57.7643 69.748 57.7643 71.3582C57.7643 73.0679 57.1608 75.0791 55.3501 75.0791C53.5401 75.0791 52.9366 73.5712 52.9366 71.3582C52.9366 68.6425 54.2439 67.8378 55.3501 67.8378ZM49.0138 81.7182H53.0375V76.589C53.9425 77.6952 55.0494 78.2988 56.6582 78.2988C60.1786 78.2988 61.8883 75.1807 61.8883 71.762C61.8883 68.1407 60.1786 64.6202 56.3567 64.6202C54.8475 64.6202 53.6411 65.3248 52.9373 66.5312H52.8363V65.0226H49.0145V81.7182H49.0138ZM69.1303 67.8378C70.941 67.8378 71.5438 69.748 71.5438 71.3582C71.5438 73.0679 70.9403 75.0791 69.1303 75.0791C67.2194 75.0791 66.6158 73.5712 66.6158 71.3582C66.6151 68.6425 68.0234 67.8378 69.1303 67.8378ZM62.693 81.7182H66.817V76.589C67.6218 77.6952 68.8289 78.2988 70.3374 78.2988C73.8578 78.2988 75.5676 75.1807 75.5676 71.762C75.5676 68.1407 73.9581 64.6202 70.0353 64.6202C68.6277 64.6202 67.4206 65.3248 66.6158 66.5312V65.0226H62.6938V81.7182H62.693V81.7182ZM80.3946 70.1511C80.5958 68.5423 81.6017 67.5364 83.0093 67.5364C84.4176 67.5364 85.4235 68.7428 85.4235 70.1511H80.3946V70.1511ZM89.5475 72.5653C89.7487 68.1392 87.4354 64.6188 83.01 64.6188C79.3894 64.6188 76.3716 67.5364 76.3716 71.4584C76.3716 75.7836 79.0872 78.2973 83.1102 78.2973C85.9261 78.2973 88.5416 76.9892 89.3463 74.0731H85.5245C85.1221 74.9781 84.1162 75.4814 83.2112 75.4814C81.5015 75.4814 80.4955 74.2743 80.3953 72.5646H89.5475V72.5653V72.5653ZM90.4532 77.9959H94.4762V71.7613C94.4762 70.1511 95.4822 68.7428 97.4933 68.7428H98.7004V64.9209C98.3983 64.82 98.3983 64.82 98.0961 64.82C96.3864 64.82 94.9781 65.6247 94.3753 67.3344V65.0212H90.4532V77.9959ZM119.219 65.0212H114.994L112.983 73.3701L111.171 65.0212H107.249L105.539 73.3701H105.439L103.427 65.0212H99.304L103.125 77.9959H107.249L109.16 69.3463H109.26L111.171 77.9959H115.295L119.219 65.0212V65.0212ZM122.537 74.275C122.537 73.1689 123.343 72.7658 124.248 72.5653C125.153 72.3641 126.158 72.2632 126.761 71.8601C126.862 74.5765 126.158 75.6833 124.248 75.6833C123.343 75.6833 122.537 75.2802 122.537 74.275V74.275ZM122.839 69.0442C123.04 67.938 123.744 67.4354 124.851 67.4354C125.655 67.4354 126.762 67.7376 126.762 68.7428C126.762 69.5475 126.46 69.748 125.756 69.9499C122.94 70.5542 118.514 70.1511 118.514 74.376C118.514 77.0909 120.324 78.2981 122.738 78.2981C124.248 78.2981 125.755 77.8964 126.862 76.6893V77.9959H130.684V68.9447C130.684 65.324 127.868 64.6195 124.851 64.6195C123.443 64.6195 122.035 64.9217 120.929 65.5252C119.823 66.229 119.119 67.3359 119.018 69.0456H122.839V69.0442ZM144.565 70.1511C144.865 68.5423 145.772 67.5364 147.279 67.5364C148.588 67.5364 149.593 68.7428 149.694 70.1511H144.565ZM153.717 72.5653C153.918 68.1392 151.705 64.6188 147.279 64.6188C143.559 64.6188 140.541 67.5364 140.541 71.4584C140.541 75.7836 143.256 78.2973 147.38 78.2973C150.095 78.2973 152.812 76.9892 153.516 74.0731H149.694C149.291 74.9781 148.386 75.4814 147.38 75.4814C145.67 75.4814 144.665 74.2743 144.564 72.5646H153.717V72.5653V72.5653ZM132.193 77.9959H136.216V71.8608C136.216 70.252 137.222 68.7435 139.233 68.7435H140.541V64.9217C140.138 64.8207 140.138 64.8207 139.836 64.8207C138.127 64.8207 136.72 65.6254 136.115 67.3352V65.0219H132.193V77.9959V77.9959ZM153.314 63.4124H153.818V61.9031H154.42L155.325 63.4124H155.93L154.924 61.8029C155.426 61.8029 155.829 61.5015 155.829 60.8979C155.829 60.2944 155.426 59.892 154.622 59.892H153.314V63.4124H153.314V63.4124ZM153.818 60.3946H154.521C154.925 60.3946 155.225 60.3946 155.225 60.8972C155.225 61.3998 154.824 61.3998 154.421 61.3998H153.818V60.3946H153.818V60.3946Z" fill="#7C7C8A"/>
<path fill-rule="evenodd" clip-rule="evenodd" d="M151.202 61.6017C151.202 59.7918 152.711 58.2832 154.521 58.2832C156.432 58.2832 157.942 59.7918 157.942 61.6017C157.945 62.0518 157.859 62.4982 157.689 62.9148C157.518 63.3314 157.266 63.7098 156.948 64.0281C156.63 64.3464 156.251 64.5981 155.835 64.7686C155.418 64.9391 154.972 65.0249 154.521 65.0212C152.711 65.0212 151.202 63.5126 151.202 61.6017ZM154.521 64.6188C156.132 64.6188 157.438 63.2112 157.438 61.6017C157.438 59.9922 156.132 58.6849 154.521 58.6849C152.913 58.6849 151.605 59.9922 151.605 61.6017C151.605 63.2112 152.913 64.6188 154.521 64.6188Z" fill="#7C7C8A"/>
</g>
<path d="M57.9034 123.129H60.0051L69.2054 143.171L78.2041 123.129H80.5424L69.2054 147.446L57.9034 123.129Z" fill="#7C7C8A"/>
<path d="M104.659 145.167C106.147 145.167 107.515 144.895 108.763 144.35C110.01 143.805 111.087 143.06 111.991 142.115C112.895 141.17 113.599 140.065 114.103 138.797C114.607 137.53 114.859 136.174 114.859 134.729C114.848 130.632 112.797 126.829 108.712 124.989C106.163 123.863 103.041 123.858 100.487 124.972C97.9591 126.104 96.179 127.955 95.1468 130.526C94.1209 133.109 94.1258 136.169 95.1636 138.747C96.2078 141.328 97.9991 143.19 100.538 144.334C101.796 144.889 103.17 145.167 104.659 145.167ZM104.59 146.735C102.759 146.735 101.104 146.406 99.6275 145.751C96.7822 144.488 94.5422 142.197 93.3948 139.298C92.239 136.38 92.2439 132.989 93.4109 130.076C94.63 127.072 96.7197 124.904 99.6788 123.572C101.167 122.916 102.827 122.588 104.659 122.588C108.088 122.59 111.007 123.796 113.416 126.207C116.685 129.625 117.586 134.887 115.838 139.247C114.619 142.258 112.523 144.426 109.552 145.751C107.991 146.434 106.289 146.735 104.59 146.735C104.59 146.735 102.758 146.735 104.59 146.735Z" fill="#7C7C8A"/>
<path d="M41.7788 138.512L36.027 125.971L30.2844 138.512H41.7788ZM47.8212 146.479H45.3502L42.4332 140.053H29.6293L26.5101 146.479H24.2722L36.027 121.941L47.8212 146.479Z" fill="#7C7C8A"/>
<path d="M133.658 121.857L153.039 142.76V122.928H154.679V147.215L135.297 126.623V146.479H133.658V121.857V121.857Z" fill="#7C7C8A"/>
<line y1="101.5" x2="180" y2="101.5" stroke="#7C7C8A"/>
<path d="M27.7173 47V39.7273H30.4446C31.0033 39.7273 31.4721 39.8243 31.8509 40.0185C32.232 40.2126 32.5196 40.4848 32.7138 40.8352C32.9103 41.1832 33.0085 41.5893 33.0085 42.0533C33.0085 42.5196 32.9091 42.9245 32.7102 43.2678C32.5137 43.6087 32.2237 43.8726 31.8402 44.0597C31.4567 44.2443 30.9856 44.3366 30.4268 44.3366H28.4844V43.2429H30.2493C30.576 43.2429 30.8435 43.1979 31.0518 43.108C31.2602 43.0156 31.4141 42.8819 31.5135 42.7067C31.6153 42.5291 31.6662 42.3113 31.6662 42.0533C31.6662 41.7952 31.6153 41.575 31.5135 41.3928C31.4117 41.2081 31.2566 41.0684 31.0483 40.9737C30.84 40.8767 30.5713 40.8281 30.2422 40.8281H29.0348V47H27.7173ZM31.4744 43.7045L33.2749 47H31.8047L30.0362 43.7045H31.4744ZM34.2212 47V39.7273H38.9513V40.8317H35.5387V42.8061H38.7063V43.9105H35.5387V45.8956H38.9798V47H34.2212ZM40.2955 47V39.7273H43.0227C43.5814 39.7273 44.0502 39.8314 44.429 40.0398C44.8101 40.2481 45.0978 40.5346 45.2919 40.8991C45.4884 41.2614 45.5866 41.6733 45.5866 42.1349C45.5866 42.6013 45.4884 43.0156 45.2919 43.3778C45.0954 43.7401 44.8054 44.0253 44.4219 44.2337C44.0384 44.4396 43.5661 44.5426 43.005 44.5426H41.1974V43.4595H42.8274C43.1541 43.4595 43.4216 43.4027 43.63 43.2891C43.8383 43.1754 43.9922 43.0192 44.0916 42.8203C44.1934 42.6214 44.2443 42.393 44.2443 42.1349C44.2443 41.8769 44.1934 41.6496 44.0916 41.4531C43.9922 41.2566 43.8371 41.1039 43.6264 40.995C43.4181 40.8838 43.1494 40.8281 42.8203 40.8281H41.6129V47H40.2955ZM46.731 47V39.7273H49.4583C50.017 39.7273 50.4857 39.8243 50.8645 40.0185C51.2457 40.2126 51.5333 40.4848 51.7275 40.8352C51.9239 41.1832 52.0222 41.5893 52.0222 42.0533C52.0222 42.5196 51.9228 42.9245 51.7239 43.2678C51.5274 43.6087 51.2374 43.8726 50.8539 44.0597C50.4703 44.2443 49.9992 44.3366 49.4405 44.3366H47.498V43.2429H49.263C49.5897 43.2429 49.8572 43.1979 50.0655 43.108C50.2739 43.0156 50.4277 42.8819 50.5272 42.7067C50.629 42.5291 50.6799 42.3113 50.6799 42.0533C50.6799 41.7952 50.629 41.575 50.5272 41.3928C50.4254 41.2081 50.2703 41.0684 50.062 40.9737C49.8536 40.8767 49.5849 40.8281 49.2559 40.8281H48.0485V47H46.731ZM50.4881 43.7045L52.2885 47H50.8184L49.0499 43.7045H50.4881ZM53.2349 47V39.7273H57.965V40.8317H54.5524V42.8061H57.72V43.9105H54.5524V45.8956H57.9934V47H53.2349ZM63.2615 41.7266C63.2284 41.4164 63.0887 41.175 62.8425 41.0021C62.5987 40.8293 62.2814 40.7429 61.8908 40.7429C61.6162 40.7429 61.3806 40.7843 61.1841 40.8672C60.9876 40.95 60.8373 41.0625 60.7331 41.2045C60.629 41.3466 60.5757 41.5088 60.5733 41.6911C60.5733 41.8426 60.6077 41.974 60.6763 42.0852C60.7473 42.1965 60.8432 42.2912 60.964 42.3693C61.0847 42.4451 61.2185 42.509 61.3652 42.5611C61.512 42.6132 61.66 42.657 61.8091 42.6925L62.4909 42.8629C62.7656 42.9268 63.0295 43.0133 63.2828 43.1222C63.5385 43.2311 63.767 43.3684 63.9682 43.5341C64.1718 43.6998 64.3328 43.8999 64.4512 44.1342C64.5695 44.3686 64.6287 44.6432 64.6287 44.9581C64.6287 45.3842 64.5198 45.7595 64.302 46.0838C64.0842 46.4058 63.7694 46.6579 63.3574 46.8402C62.9479 47.0201 62.4519 47.1101 61.8695 47.1101C61.3037 47.1101 60.8124 47.0225 60.3958 46.8473C59.9815 46.6721 59.6571 46.4164 59.4228 46.0803C59.1908 45.7441 59.0653 45.3345 59.0463 44.8516H60.3425C60.3614 45.1049 60.4396 45.3156 60.5769 45.4837C60.7142 45.6518 60.8929 45.7772 61.1131 45.8601C61.3356 45.9429 61.5842 45.9844 61.8588 45.9844C62.1453 45.9844 62.3962 45.9418 62.6117 45.8565C62.8295 45.7689 62.9999 45.6482 63.123 45.4943C63.2462 45.3381 63.3089 45.1558 63.3113 44.9474C63.3089 44.758 63.2533 44.6018 63.1444 44.4787C63.0355 44.3532 62.8828 44.2491 62.6863 44.1662C62.4921 44.081 62.2649 44.0052 62.0044 43.9389L61.177 43.7259C60.5781 43.572 60.1046 43.3388 59.7566 43.0263C59.4109 42.7114 59.2381 42.2936 59.2381 41.7727C59.2381 41.3442 59.3541 40.969 59.5861 40.647C59.8205 40.325 60.1389 40.0753 60.5414 39.8977C60.9438 39.7178 61.3996 39.6278 61.9086 39.6278C62.4247 39.6278 62.8768 39.7178 63.2651 39.8977C63.6557 40.0753 63.9623 40.3227 64.1848 40.6399C64.4074 40.9548 64.5222 41.317 64.5293 41.7266H63.2615ZM65.8033 47V39.7273H70.5334V40.8317H67.1207V42.8061H70.2884V43.9105H67.1207V45.8956H70.5618V47H65.8033ZM77.854 39.7273V47H76.6822L73.2553 42.0462H73.195V47H71.8775V39.7273H73.0565L76.4798 44.6847H76.5437V39.7273H77.854ZM78.97 40.8317V39.7273H84.7725V40.8317H82.5247V47H81.2179V40.8317H78.97ZM85.9462 47H84.54L87.1003 39.7273H88.7267L91.2907 47H89.8844L87.9419 41.2188H87.8851L85.9462 47ZM85.9924 44.1484H89.8276V45.2067H85.9924V44.1484ZM98.2251 39.7273V47H97.0533L93.6264 42.0462H93.5661V47H92.2486V39.7273H93.4276L96.8509 44.6847H96.9148V39.7273H98.2251ZM99.3411 40.8317V39.7273H105.144V40.8317H102.896V47H101.589V40.8317H99.3411ZM106.262 47V39.7273H110.992V40.8317H107.58V42.8061H110.747V43.9105H107.58V45.8956H111.021V47H106.262ZM121.316 43.3636C121.316 44.1473 121.169 44.8184 120.875 45.3771C120.584 45.9335 120.186 46.3596 119.682 46.6555C119.18 46.9515 118.611 47.0994 117.974 47.0994C117.337 47.0994 116.767 46.9515 116.262 46.6555C115.76 46.3572 115.363 45.9299 115.069 45.3736C114.778 44.8149 114.632 44.1449 114.632 43.3636C114.632 42.58 114.778 41.91 115.069 41.3537C115.363 40.795 115.76 40.3677 116.262 40.0717C116.767 39.7758 117.337 39.6278 117.974 39.6278C118.611 39.6278 119.18 39.7758 119.682 40.0717C120.186 40.3677 120.584 40.795 120.875 41.3537C121.169 41.91 121.316 42.58 121.316 43.3636ZM119.991 43.3636C119.991 42.812 119.905 42.3468 119.732 41.968C119.561 41.5869 119.325 41.2992 119.021 41.1051C118.718 40.9086 118.369 40.8104 117.974 40.8104C117.579 40.8104 117.229 40.9086 116.926 41.1051C116.623 41.2992 116.385 41.5869 116.213 41.968C116.042 42.3468 115.957 42.812 115.957 43.3636C115.957 43.9152 116.042 44.3816 116.213 44.7628C116.385 45.1416 116.623 45.4292 116.926 45.6257C117.229 45.8198 117.579 45.9169 117.974 45.9169C118.369 45.9169 118.718 45.8198 119.021 45.6257C119.325 45.4292 119.561 45.1416 119.732 44.7628C119.905 44.3816 119.991 43.9152 119.991 43.3636ZM122.561 47V39.7273H127.22V40.8317H123.879V42.8061H126.901V43.9105H123.879V47H122.561ZM129.738 39.7273V47H128.42V39.7273H129.738ZM137.39 42.1811H136.062C136.024 41.9633 135.954 41.7704 135.852 41.6023C135.75 41.4318 135.624 41.2874 135.472 41.169C135.321 41.0507 135.148 40.9619 134.954 40.9027C134.762 40.8411 134.555 40.8104 134.332 40.8104C133.937 40.8104 133.586 40.9098 133.281 41.1087C132.976 41.3052 132.737 41.594 132.564 41.9751C132.391 42.3539 132.305 42.8168 132.305 43.3636C132.305 43.92 132.391 44.3887 132.564 44.7699C132.739 45.1487 132.978 45.4351 133.281 45.6293C133.586 45.821 133.936 45.9169 134.329 45.9169C134.546 45.9169 134.75 45.8885 134.939 45.8317C135.131 45.7725 135.303 45.6861 135.454 45.5724C135.608 45.4588 135.737 45.3191 135.841 45.1534C135.948 44.9877 136.021 44.7983 136.062 44.5852L137.39 44.5923C137.34 44.938 137.232 45.2623 137.067 45.5653C136.903 45.8684 136.689 46.1359 136.424 46.3679C136.159 46.5975 135.849 46.7775 135.493 46.9077C135.138 47.0355 134.744 47.0994 134.311 47.0994C133.672 47.0994 133.101 46.9515 132.599 46.6555C132.097 46.3596 131.702 45.9323 131.413 45.3736C131.124 44.8149 130.98 44.1449 130.98 43.3636C130.98 42.58 131.126 41.91 131.417 41.3537C131.708 40.795 132.104 40.3677 132.606 40.0717C133.108 39.7758 133.676 39.6278 134.311 39.6278C134.716 39.6278 135.092 39.6847 135.44 39.7983C135.788 39.9119 136.098 40.0788 136.371 40.299C136.643 40.5168 136.867 40.7843 137.042 41.1016C137.219 41.4164 137.335 41.7763 137.39 42.1811ZM139.914 39.7273V47H138.596V39.7273H139.914ZM142.274 47H140.868L143.428 39.7273H145.055L147.619 47H146.213L144.27 41.2188H144.213L142.274 47ZM142.32 44.1484H146.156V45.2067H142.32V44.1484ZM148.577 47V39.7273H149.894V45.8956H153.097V47H148.577Z" fill="#7C7C8A"/>
<defs>
<clipPath id="clip0_3_48">
<rect width="140" height="140" fill="white" transform="translate(20)"/>
</clipPath>
</defs>
</svg>
