<svg width="16" height="16" viewBox="0 0 16 16" fill="none" xmlns="http://www.w3.org/2000/svg">
<g clip-path="url(#clip0_1_28)">
<path d="M13.601 2.326C12.8675 1.58568 11.9939 0.998748 11.0313 0.599409C10.0687 0.200069 9.03617 -0.00369005 7.994 3.55416e-06C3.627 3.55416e-06 0.068 3.558 0.064 7.926C0.064 9.325 0.43 10.686 1.121 11.891L0 16L4.204 14.898C5.367 15.5309 6.66993 15.8627 7.994 15.863H7.998C12.366 15.863 15.924 12.305 15.928 7.933C15.929 6.89105 15.7238 5.85919 15.3243 4.89688C14.9247 3.93457 14.3387 3.06083 13.6 2.326H13.601ZM7.994 14.521C6.813 14.5214 5.6537 14.2036 4.638 13.601L4.398 13.457L1.904 14.111L2.57 11.678L2.414 11.427C1.75381 10.3773 1.40465 9.16203 1.407 7.922C1.407 4.296 4.364 1.338 7.998 1.338C8.86374 1.33645 9.72123 1.50628 10.521 1.8377C11.3208 2.16911 12.0471 2.65556 12.658 3.269C13.271 3.88005 13.757 4.60643 14.0879 5.40623C14.4188 6.20604 14.5881 7.06345 14.586 7.929C14.582 11.568 11.625 14.521 7.994 14.521V14.521ZM11.609 9.587C11.412 9.488 10.439 9.009 10.256 8.941C10.074 8.876 9.941 8.842 9.811 9.04C9.678 9.237 9.298 9.686 9.184 9.815C9.07 9.948 8.952 9.963 8.754 9.865C8.557 9.765 7.918 9.557 7.162 8.88C6.572 8.355 6.177 7.705 6.059 7.508C5.945 7.31 6.048 7.204 6.147 7.105C6.234 7.017 6.344 6.873 6.443 6.759C6.543 6.645 6.576 6.561 6.641 6.429C6.706 6.295 6.675 6.181 6.626 6.082C6.576 5.983 6.181 5.006 6.014 4.612C5.854 4.223 5.691 4.277 5.569 4.272C5.455 4.265 5.322 4.265 5.189 4.265C5.08856 4.2675 4.98973 4.29073 4.89869 4.33323C4.80766 4.37574 4.7264 4.4366 4.66 4.512C4.478 4.71 3.969 5.189 3.969 6.166C3.969 7.143 4.679 8.082 4.779 8.215C4.877 8.348 6.173 10.347 8.162 11.207C8.632 11.412 9.002 11.533 9.291 11.625C9.766 11.777 10.195 11.754 10.537 11.705C10.917 11.647 11.708 11.225 11.875 10.762C12.039 10.298 12.039 9.902 11.989 9.819C11.94 9.735 11.807 9.686 11.609 9.587V9.587Z" fill="#E1E1E6"/>
</g>
<defs>
<clipPath id="clip0_1_28">
<rect width="16" height="16" fill="white"/>
</clipPath>
</defs>
</svg>
